# xmcd
#
# Track frame offsets:
#	150
#	16088
#	28375
#	44866
#	61332
#	79905
#	93790
#	107853
#	124950
#	139061
#
# Disc length: 2028 seconds
#
# Revision: 1
# Processed by: cddbd v1.5.2PL0 Copyright (c) Steve Scherf et al.
# Submitted via: audiograbber 1.83.01
#
DISCID=8a07ea0a
DTITLE=Meiju Suvas - Missä Milloin Vaan
DYEAR=2012
DGENRE=Pop
TTITLE0=Bailaa
TTITLE1=Yhden Yön
TTITLE2=Missä Milloin Vaan
TTITLE3=Pyjamas Päälle Mä Paan
TTITLE4=Kuoreen Kultaiseen
TTITLE5=Kudon Seittii
TTITLE6=Hali Hali
TTITLE7=Mahdollisuus (Feat. Janne Leino)
TTITLE8=Kuuban Rannoilla
TTITLE9=Kuumaan Tanssiin
EXTD=TR.
EXTT0=
EXTT1=
EXTT2=
EXTT3=
EXTT4=
EXTT5=
EXTT6=
EXTT7=
EXTT8=
EXTT9=
PLAYORDER=
